<?xml version="1.0" encoding="iso-8859-1"?>
<!-- Generator: Adobe Illustrator 19.0.0, SVG Export Plug-In . SVG Version: 6.00 Build 0)  -->
<svg xmlns="http://www.w3.org/2000/svg" xmlns:xlink="http://www.w3.org/1999/xlink" version="1.1" id="Capa_1" x="0px" y="0px" viewBox="0 0 239.757 239.757" style="enable-background:new 0 0 239.757 239.757;" xml:space="preserve" width="512px" height="512px">
<path d="M228.924,123.028l-18.676-15.074l-4.006,4.963l-50.414-48.926l9.16-51.258l-43.059,21.911l-4.432,0.124L91,0L80.579,37.354  L43.301,74.2l-2.882,22.604l-17.415,19.604c-7.045,2.201-12.172,8.786-12.172,16.546c0,7.986,5.436,14.709,12.798,16.709  c1.131,1.784,2.331,3.617,3.59,5.458c11.501,16.826,21.522,24.769,30.637,24.769h0.733l54.188-16.012l23.459,22.791  c-12.854,1.912-22.747,13.02-22.747,26.397c0,14.717,11.973,26.689,26.689,26.689s26.689-11.973,26.689-26.689  c0-3.723-0.769-7.269-2.152-10.492L228.924,123.028z M84.829,107.356c-6.266,0-11.345-5.08-11.345-11.345  s5.079-11.345,11.345-11.345s11.345,5.08,11.345,11.345S91.095,107.356,84.829,107.356z" fill="#3c2e3d"/>
<g>
</g>
<g>
</g>
<g>
</g>
<g>
</g>
<g>
</g>
<g>
</g>
<g>
</g>
<g>
</g>
<g>
</g>
<g>
</g>
<g>
</g>
<g>
</g>
<g>
</g>
<g>
</g>
<g>
</g>
</svg>
