<?xml version="1.0" encoding="iso-8859-1"?>
<!-- Generator: Adobe Illustrator 19.0.0, SVG Export Plug-In . SVG Version: 6.00 Build 0)  -->
<svg xmlns="http://www.w3.org/2000/svg" xmlns:xlink="http://www.w3.org/1999/xlink" version="1.1" id="Capa_1" x="0px" y="0px" viewBox="0 0 233.979 233.979" style="enable-background:new 0 0 233.979 233.979;" xml:space="preserve" width="512px" height="512px">
<path d="M208.497,142.471c0-13.82-3.086-26.932-8.595-38.69l19.318-19.318l-24.629-24.629L179.094,75.33  c-5.669-5.248-11.999-9.79-18.853-13.482c1.808-4.929,2.801-10.247,2.801-15.795C163.042,20.659,142.382,0,116.989,0  S70.936,20.659,70.936,46.054c0,5.548,0.993,10.867,2.801,15.795c-6.854,3.692-13.184,8.234-18.853,13.481L39.387,59.833  L14.758,84.462l19.318,19.318c-5.509,11.759-8.595,24.87-8.595,38.691s3.086,26.932,8.595,38.691l-19.318,19.318l24.629,24.629  l15.497-15.497c16.327,15.114,38.154,24.367,62.105,24.367c23.951,0,45.778-9.253,62.105-24.367l15.497,15.497l24.629-24.629  l-19.318-19.318C205.411,169.403,208.497,156.291,208.497,142.471z M148.927,89.924l-7.167,7.066H93.218l-7.403-7.51  c9.148-5.402,19.802-8.516,31.174-8.516C128.676,80.963,139.611,84.241,148.927,89.924z M178.497,142.471  c0,11.687-3.445,22.623-9.127,31.938l-8.714-8.67v-45.579l9.157-8.863C175.216,120.445,178.497,131.098,178.497,142.471z   M71.656,165.768l-7.825,7.878c-5.403-9.148-8.434-19.802-8.434-31.175c0-11.688,3.153-22.623,8.836-31.938l7.422,7.656V165.768z   M101.656,156.989v-30h29v30H101.656z M85.051,195.018l8.144-8.029h46.616l8.352,8.472c-9.148,5.403-19.802,8.517-31.175,8.517  C105.301,203.979,94.366,200.7,85.051,195.018z" fill="#3c2e3d"/>
<g>
</g>
<g>
</g>
<g>
</g>
<g>
</g>
<g>
</g>
<g>
</g>
<g>
</g>
<g>
</g>
<g>
</g>
<g>
</g>
<g>
</g>
<g>
</g>
<g>
</g>
<g>
</g>
<g>
</g>
</svg>
