<?xml version="1.0" encoding="iso-8859-1"?>
<!-- Generator: Adobe Illustrator 19.0.0, SVG Export Plug-In . SVG Version: 6.00 Build 0)  -->
<svg xmlns="http://www.w3.org/2000/svg" xmlns:xlink="http://www.w3.org/1999/xlink" version="1.1" id="Capa_1" x="0px" y="0px" viewBox="0 0 512 512" style="enable-background:new 0 0 512 512;" xml:space="preserve" width="512px" height="512px">
<g>
	<g>
		<path d="M428.807,84.294H406.5V30.052c0-8.284-6.716-15-15-15s-15,6.716-15,15v54.242h-16V15c0-8.284-6.716-15-15-15    s-15,6.716-15,15v69.294h-14V30.052c0-8.284-6.716-15-15-15s-15,6.716-15,15v54.242h-17V15c0-8.284-6.716-15-15-15    s-15,6.716-15,15v69.294h-14V30.052c0-8.284-6.716-15-15-15s-15,6.716-15,15v54.242h-16V15c0-8.284-6.716-15-15-15    s-15,6.716-15,15v69.294h-14V30.052c0-8.284-6.716-15-15-15s-15,6.716-15,15v54.242H83.193c-8.284,0-15,6.716-15,15v44.557    c0,49.519,40.287,89.806,89.807,89.806h31.083l-8.777,198.722c-1.001,21.006,6.429,40.946,20.921,56.146    C215.661,503.663,235.113,512,256,512c20.887,0,40.339-8.337,54.773-23.476c14.492-15.2,21.922-35.14,20.923-56.093    l-8.778-198.775H354c49.52,0,89.807-40.287,89.807-89.806V99.294C443.807,91.01,437.091,84.294,428.807,84.294z M271,435.721    c0,8.284-6.716,15-15,15s-15-6.716-15-15v-44.616c0-8.284,6.716-15,15-15s15,6.716,15,15V435.721z" fill="#8bcbc8"/>
	</g>
</g>
<g>
</g>
<g>
</g>
<g>
</g>
<g>
</g>
<g>
</g>
<g>
</g>
<g>
</g>
<g>
</g>
<g>
</g>
<g>
</g>
<g>
</g>
<g>
</g>
<g>
</g>
<g>
</g>
<g>
</g>
</svg>
