<?xml version="1.0" encoding="iso-8859-1"?>
<!-- Generator: Adobe Illustrator 19.0.0, SVG Export Plug-In . SVG Version: 6.00 Build 0)  -->
<svg xmlns="http://www.w3.org/2000/svg" xmlns:xlink="http://www.w3.org/1999/xlink" version="1.1" id="Layer_1" x="0px" y="0px" viewBox="0 0 512 512" style="enable-background:new 0 0 512 512;" xml:space="preserve" width="512px" height="512px">
<g>
	<g>
		<path d="M290.132,0H85.339C38.286,0,0.009,38.277,0.009,85.33v273.057c0,16.419,20.937,23.278,30.721,10.239l66.597-88.791    c1.391-1.852,3.148-3.288,5.078-4.411v-47.876c0-65.87,53.587-119.462,119.462-119.462h153.595V85.33    C375.462,38.277,337.185,0,290.132,0z" fill="#8bcbc8"/>
	</g>
</g>
<g>
	<g>
		<path d="M426.661,136.529H221.868c-47.053,0-85.33,38.277-85.33,85.33v102.396c0,47.053,38.277,85.33,85.33,85.33h179.194    c5.421,0,10.377,2.472,13.611,6.783l66.597,88.786c9.833,13.106,30.721,6.131,30.721-10.239V221.859    C511.991,174.805,473.714,136.529,426.661,136.529z M256,290.122c-9.425,0-17.066-7.641-17.066-17.066    c0-9.425,7.641-17.066,17.066-17.066c9.425,0,17.066,7.641,17.066,17.066C273.066,282.482,265.425,290.122,256,290.122z     M324.264,290.122c-9.425,0-17.066-7.641-17.066-17.066c0-9.425,7.641-17.066,17.066-17.066c9.425,0,17.066,7.641,17.066,17.066    C341.33,282.482,333.689,290.122,324.264,290.122z M392.528,290.122c-9.425,0-17.066-7.64-17.066-17.066    c0-9.425,7.641-17.066,17.066-17.066c9.425,0,17.066,7.641,17.066,17.066C409.594,282.481,401.953,290.122,392.528,290.122z" fill="#8bcbc8"/>
	</g>
</g>
<g>
</g>
<g>
</g>
<g>
</g>
<g>
</g>
<g>
</g>
<g>
</g>
<g>
</g>
<g>
</g>
<g>
</g>
<g>
</g>
<g>
</g>
<g>
</g>
<g>
</g>
<g>
</g>
<g>
</g>
</svg>
