<?xml version="1.0" encoding="iso-8859-1"?>
<!-- Generator: Adobe Illustrator 19.0.0, SVG Export Plug-In . SVG Version: 6.00 Build 0)  -->
<svg xmlns="http://www.w3.org/2000/svg" xmlns:xlink="http://www.w3.org/1999/xlink" version="1.1" id="Capa_1" x="0px" y="0px" viewBox="0 0 293.796 293.796" style="enable-background:new 0 0 293.796 293.796;" xml:space="preserve" width="512px" height="512px">
<path d="M248.935,69.665c-6.624-6.625-15.484-10.273-24.948-10.273c-9.489,0-18.377,3.662-25.027,10.313l-0.212,0.213  c-0.331,0.331-0.647,0.671-0.962,1.012c-13.536-11.542-31.065-18.531-50.205-18.531c-19.514,0-37.352,7.265-50.992,19.213  c-0.503-0.573-1.021-1.138-1.568-1.685l-0.22-0.22c-6.65-6.651-15.539-10.313-25.028-10.313c-9.464,0-18.324,3.648-24.948,10.273  L0,114.489l8.643,41.563l41.71,8.643l20.023-19.875v19.08c0,42.733,34.767,77.5,77.5,77.5s77.5-34.767,77.5-77.5V146.22  l18.326,18.474l41.489-8.643l8.606-41.563L248.935,69.665z M147.58,196.908l-26.833-20.359l26.833-17.5l26.833,17.5L147.58,196.908z  " fill="#8bcbc8"/>
<g>
</g>
<g>
</g>
<g>
</g>
<g>
</g>
<g>
</g>
<g>
</g>
<g>
</g>
<g>
</g>
<g>
</g>
<g>
</g>
<g>
</g>
<g>
</g>
<g>
</g>
<g>
</g>
<g>
</g>
</svg>
