<?xml version="1.0" encoding="iso-8859-1"?>
<!-- Generator: Adobe Illustrator 18.1.1, SVG Export Plug-In . SVG Version: 6.00 Build 0)  -->
<svg version="1.1" id="Capa_1" xmlns="http://www.w3.org/2000/svg" xmlns:xlink="http://www.w3.org/1999/xlink" x="0px" y="0px"
	 viewBox="0 0 17.598 17.598" style="enable-background:new 0 0 17.598 17.598;" xml:space="preserve">
<g>
	<g>
		<path style="fill:#030104;" d="M14.017,12.674c-0.93-0.861-1.857-1.57-2.664-2.068c-0.958-0.719-1.863-0.814-2.752-1.79
			C7.558,7.67,5.581,7.943,3.91,6.272C1.788,4.151,1.469,1.032,0.651,1.85c-0.818,0.817,0.238,3.2,2.359,5.32
			c1.52,1.521,3.281,1.604,4.288,2.617l2.079,1.756c0.54,0.906,1.506,2.059,2.729,3.193c2.236,2.072,4.477,3.291,5.006,2.721
			C17.638,16.888,16.251,14.748,14.017,12.674z"/>
		<path style="fill:#030104;" d="M7.755,7.697l1.151-1.151c0.167-0.167,0.167-0.438,0-0.605s-0.439-0.167-0.606,0L7.149,7.092
			c-0.167,0.167-0.167,0.438,0,0.605S7.588,7.866,7.755,7.697z"/>
		<path style="fill:#030104;" d="M6.175,7.098l1.151-1.151c0.167-0.167,0.167-0.438,0-0.605s-0.438-0.168-0.606,0L5.569,6.493
			c-0.167,0.167-0.167,0.438,0,0.605C5.737,7.264,6.008,7.265,6.175,7.098z"/>
		<path style="fill:#030104;" d="M4.887,6.093l1.151-1.151c0.167-0.167,0.167-0.438,0-0.606s-0.438-0.167-0.606,0l-1.15,1.151
			c-0.167,0.168-0.167,0.439,0,0.606C4.448,6.259,4.719,6.259,4.887,6.093z"/>
		<path style="fill:#030104;" d="M4.846,3.066c-0.167-0.167-0.439-0.167-0.606,0L3.088,4.217c-0.167,0.167-0.167,0.439,0,0.606
			s0.439,0.167,0.606,0l1.152-1.151C5.013,3.504,5.013,3.233,4.846,3.066z"/>
		<path style="fill:#030104;" d="M2.34,3.379c0.168,0.167,0.439,0.167,0.606,0l1.15-1.151c0.167-0.167,0.167-0.438,0-0.606
			c-0.167-0.167-0.438-0.167-0.605,0L2.34,2.773C2.173,2.94,2.173,3.212,2.34,3.379z"/>
		<path style="fill:#030104;" d="M2.02,1.882l1.151-1.151c0.167-0.167,0.167-0.439,0-0.606s-0.438-0.167-0.605,0L1.414,1.276
			c-0.167,0.167-0.167,0.439,0,0.606S1.853,2.049,2.02,1.882z"/>
		<path style="fill:#030104;" d="M7.857,5.508c0.167,0.167,0.439,0.167,0.605,0l0.431-0.43c0.167-0.167,0.167-0.439,0-0.606
			s-0.439-0.167-0.607,0l-0.429,0.43C7.69,5.069,7.69,5.341,7.857,5.508z"/>
		<path style="fill:#030104;" d="M6.799,4.554c0.167,0.167,0.439,0.167,0.606,0l0.738-0.739c0.168-0.167,0.168-0.438,0-0.605
			c-0.167-0.167-0.438-0.168-0.606,0L6.799,3.949C6.632,4.115,6.632,4.387,6.799,4.554z"/>
		<path style="fill:#030104;" d="M5.693,3.417c0.167,0.167,0.438,0.167,0.606,0L7.14,2.575c0.167-0.167,0.167-0.438,0-0.605
			c-0.167-0.168-0.439-0.168-0.606,0L5.693,2.811C5.526,2.978,5.526,3.25,5.693,3.417z"/>
		<path style="fill:#030104;" d="M4.819,2.086c0.167,0.167,0.439,0.167,0.606,0l0.429-0.429c0.167-0.167,0.167-0.439,0-0.606
			s-0.438-0.168-0.605,0l-0.43,0.43C4.652,1.648,4.652,1.919,4.819,2.086z"/>
		<path style="fill:#030104;" d="M4.32,1.129l0.326-0.326c0.167-0.167,0.167-0.438,0-0.605s-0.438-0.168-0.606,0L3.714,0.523
			c-0.167,0.167-0.167,0.438,0,0.605C3.881,1.296,4.153,1.296,4.32,1.129z"/>
	</g>
</g>
<g>
</g>
<g>
</g>
<g>
</g>
<g>
</g>
<g>
</g>
<g>
</g>
<g>
</g>
<g>
</g>
<g>
</g>
<g>
</g>
<g>
</g>
<g>
</g>
<g>
</g>
<g>
</g>
<g>
</g>
</svg>
