<?xml version="1.0" encoding="iso-8859-1"?>
<!-- Generator: Adobe Illustrator 19.0.0, SVG Export Plug-In . SVG Version: 6.00 Build 0)  -->
<svg xmlns="http://www.w3.org/2000/svg" xmlns:xlink="http://www.w3.org/1999/xlink" version="1.1" id="Layer_1" x="0px" y="0px" viewBox="0 0 512 512" style="enable-background:new 0 0 512 512;" xml:space="preserve" width="512px" height="512px">
<g>
	<g>
		<path d="M489.739,267.13h-83.478V16.696C406.261,7.473,398.782,0,389.565,0H22.261C13.044,0,5.565,7.473,5.565,16.696v428.522    C5.565,482.044,35.522,512,72.348,512h367.304c36.826,0,66.783-29.956,66.783-66.783V283.826    C506.435,274.603,498.956,267.13,489.739,267.13z M72.348,83.478c0-9.223,7.479-16.696,16.696-16.696h100.174    c9.217,0,16.696,7.473,16.696,16.696v133.565c0,9.223-7.479,16.696-16.696,16.696H89.044c-9.217,0-16.696-7.473-16.696-16.696    V83.478z M189.217,445.217H89.044c-9.217,0-16.696-7.473-16.696-16.696c0-9.223,7.479-16.696,16.696-16.696h100.174    c9.217,0,16.696,7.473,16.696,16.696C205.913,437.744,198.435,445.217,189.217,445.217z M189.217,378.435H89.044    c-9.217,0-16.696-7.473-16.696-16.696c0-9.223,7.479-16.696,16.696-16.696h100.174c9.217,0,16.696,7.473,16.696,16.696    C205.913,370.962,198.435,378.435,189.217,378.435z M322.783,445.217H256c-9.217,0-16.696-7.473-16.696-16.696    c0-9.223,7.479-16.696,16.696-16.696h66.783c9.217,0,16.696,7.473,16.696,16.696C339.478,437.744,332,445.217,322.783,445.217z     M322.783,378.435H256c-9.217,0-16.696-7.473-16.696-16.696c0-9.223,7.479-16.696,16.696-16.696h66.783    c9.217,0,16.696,7.473,16.696,16.696C339.478,370.962,332,378.435,322.783,378.435z M322.783,311.652H89.044    c-9.217,0-16.696-7.473-16.696-16.696c0-9.223,7.479-16.696,16.696-16.696h233.739c9.217,0,16.696,7.473,16.696,16.696    C339.478,304.179,332,311.652,322.783,311.652z M322.783,233.739H256c-9.217,0-16.696-7.473-16.696-16.696    c0-9.223,7.479-16.696,16.696-16.696h66.783c9.217,0,16.696,7.473,16.696,16.696C339.478,226.266,332,233.739,322.783,233.739z     M322.783,166.957H256c-9.217,0-16.696-7.473-16.696-16.696s7.479-16.696,16.696-16.696h66.783    c9.217,0,16.696,7.473,16.696,16.696C339.478,159.484,332,166.957,322.783,166.957z M322.783,100.174H256    c-9.217,0-16.696-7.473-16.696-16.696S246.783,66.783,256,66.783h66.783c9.217,0,16.696,7.473,16.696,16.696    S332,100.174,322.783,100.174z M473.043,445.217c0,18.413-14.978,33.391-33.391,33.391s-33.391-14.978-33.391-33.391    c0-54.657,0-86.788,0-144.696h66.783V445.217z" fill="#8bcbc8"/>
	</g>
</g>
<g>
	<g>
		<rect x="105.739" y="100.174" width="66.783" height="100.174" fill="#8bcbc8"/>
	</g>
</g>
<g>
</g>
<g>
</g>
<g>
</g>
<g>
</g>
<g>
</g>
<g>
</g>
<g>
</g>
<g>
</g>
<g>
</g>
<g>
</g>
<g>
</g>
<g>
</g>
<g>
</g>
<g>
</g>
<g>
</g>
</svg>
